<mxfile host="app.diagrams.net" modified="2021-12-22T05:10:03.992Z" agent="5.0 (Windows NT 10.0; Win64; x64) AppleWebKit/537.36 (KHTML, like Gecko) Chrome/96.0.4664.110 Safari/537.36" etag="Bizv1T1Byqvr1dG_w9-T" version="16.0.3" type="github">
  <diagram id="Vbpvdw_0GRjlD3DwFyju" name="Page-1">
    <mxGraphModel dx="1053" dy="582" grid="1" gridSize="10" guides="1" tooltips="1" connect="1" arrows="1" fold="1" page="1" pageScale="1" pageWidth="850" pageHeight="1100" math="0" shadow="0">
      <root>
        <mxCell id="0" />
        <mxCell id="1" parent="0" />
        <mxCell id="KTHIXJi9sPrxiIzioin6-11" value="START" style="shape=process;whiteSpace=wrap;html=1;backgroundOutline=1;" vertex="1" parent="1">
          <mxGeometry x="280" y="40" width="280" height="80" as="geometry" />
        </mxCell>
        <mxCell id="KTHIXJi9sPrxiIzioin6-14" value="" style="endArrow=classic;html=1;rounded=0;exitX=0.5;exitY=1;exitDx=0;exitDy=0;" edge="1" parent="1" source="KTHIXJi9sPrxiIzioin6-11">
          <mxGeometry width="50" height="50" relative="1" as="geometry">
            <mxPoint x="360" y="370" as="sourcePoint" />
            <mxPoint x="420" y="200" as="targetPoint" />
          </mxGeometry>
        </mxCell>
        <mxCell id="KTHIXJi9sPrxiIzioin6-19" value="" style="edgeStyle=orthogonalEdgeStyle;rounded=0;orthogonalLoop=1;jettySize=auto;html=1;" edge="1" parent="1" source="KTHIXJi9sPrxiIzioin6-17" target="KTHIXJi9sPrxiIzioin6-18">
          <mxGeometry relative="1" as="geometry" />
        </mxCell>
        <mxCell id="KTHIXJi9sPrxiIzioin6-17" value="GEN WORD" style="rounded=1;whiteSpace=wrap;html=1;" vertex="1" parent="1">
          <mxGeometry x="360" y="200" width="120" height="60" as="geometry" />
        </mxCell>
        <mxCell id="KTHIXJi9sPrxiIzioin6-21" value="" style="edgeStyle=orthogonalEdgeStyle;rounded=0;orthogonalLoop=1;jettySize=auto;html=1;" edge="1" parent="1" source="KTHIXJi9sPrxiIzioin6-18" target="KTHIXJi9sPrxiIzioin6-20">
          <mxGeometry relative="1" as="geometry" />
        </mxCell>
        <mxCell id="KTHIXJi9sPrxiIzioin6-18" value="GEN BLANK = LETTER IN WORD" style="whiteSpace=wrap;html=1;rounded=1;" vertex="1" parent="1">
          <mxGeometry x="360" y="340" width="120" height="60" as="geometry" />
        </mxCell>
        <mxCell id="KTHIXJi9sPrxiIzioin6-23" value="" style="edgeStyle=orthogonalEdgeStyle;rounded=0;orthogonalLoop=1;jettySize=auto;html=1;" edge="1" parent="1" source="KTHIXJi9sPrxiIzioin6-20" target="KTHIXJi9sPrxiIzioin6-22">
          <mxGeometry relative="1" as="geometry" />
        </mxCell>
        <mxCell id="KTHIXJi9sPrxiIzioin6-20" value="ASK USER TO GUESS WORD" style="whiteSpace=wrap;html=1;rounded=1;" vertex="1" parent="1">
          <mxGeometry x="360" y="480" width="120" height="60" as="geometry" />
        </mxCell>
        <mxCell id="KTHIXJi9sPrxiIzioin6-25" value="" style="edgeStyle=orthogonalEdgeStyle;rounded=0;orthogonalLoop=1;jettySize=auto;html=1;" edge="1" parent="1" source="KTHIXJi9sPrxiIzioin6-22" target="KTHIXJi9sPrxiIzioin6-24">
          <mxGeometry relative="1" as="geometry" />
        </mxCell>
        <mxCell id="KTHIXJi9sPrxiIzioin6-26" value="YES" style="edgeLabel;html=1;align=center;verticalAlign=middle;resizable=0;points=[];" vertex="1" connectable="0" parent="KTHIXJi9sPrxiIzioin6-25">
          <mxGeometry x="0.3259" y="-1" relative="1" as="geometry">
            <mxPoint as="offset" />
          </mxGeometry>
        </mxCell>
        <mxCell id="KTHIXJi9sPrxiIzioin6-33" value="" style="edgeStyle=orthogonalEdgeStyle;rounded=0;orthogonalLoop=1;jettySize=auto;html=1;" edge="1" parent="1" source="KTHIXJi9sPrxiIzioin6-22" target="KTHIXJi9sPrxiIzioin6-32">
          <mxGeometry relative="1" as="geometry" />
        </mxCell>
        <mxCell id="KTHIXJi9sPrxiIzioin6-34" value="NO" style="edgeLabel;html=1;align=center;verticalAlign=middle;resizable=0;points=[];" vertex="1" connectable="0" parent="KTHIXJi9sPrxiIzioin6-33">
          <mxGeometry x="-0.2189" y="-1" relative="1" as="geometry">
            <mxPoint as="offset" />
          </mxGeometry>
        </mxCell>
        <mxCell id="KTHIXJi9sPrxiIzioin6-22" value="DID LETTER GUESSED RIGHT" style="whiteSpace=wrap;html=1;rounded=1;" vertex="1" parent="1">
          <mxGeometry x="360" y="620" width="120" height="60" as="geometry" />
        </mxCell>
        <mxCell id="KTHIXJi9sPrxiIzioin6-39" value="" style="edgeStyle=orthogonalEdgeStyle;rounded=0;orthogonalLoop=1;jettySize=auto;html=1;" edge="1" parent="1" source="KTHIXJi9sPrxiIzioin6-24" target="KTHIXJi9sPrxiIzioin6-35">
          <mxGeometry relative="1" as="geometry" />
        </mxCell>
        <mxCell id="KTHIXJi9sPrxiIzioin6-24" value="REPLACE BLANK LETTER" style="shape=parallelogram;perimeter=parallelogramPerimeter;whiteSpace=wrap;html=1;fixedSize=1;rounded=1;" vertex="1" parent="1">
          <mxGeometry x="140" y="620" width="140" height="60" as="geometry" />
        </mxCell>
        <mxCell id="KTHIXJi9sPrxiIzioin6-38" value="" style="edgeStyle=orthogonalEdgeStyle;rounded=0;orthogonalLoop=1;jettySize=auto;html=1;" edge="1" parent="1" source="KTHIXJi9sPrxiIzioin6-32" target="KTHIXJi9sPrxiIzioin6-37">
          <mxGeometry relative="1" as="geometry" />
        </mxCell>
        <mxCell id="KTHIXJi9sPrxiIzioin6-32" value="LOSE A LIMB" style="shape=parallelogram;perimeter=parallelogramPerimeter;whiteSpace=wrap;html=1;fixedSize=1;rounded=1;" vertex="1" parent="1">
          <mxGeometry x="560" y="620" width="120" height="60" as="geometry" />
        </mxCell>
        <mxCell id="KTHIXJi9sPrxiIzioin6-41" value="" style="edgeStyle=orthogonalEdgeStyle;rounded=0;orthogonalLoop=1;jettySize=auto;html=1;" edge="1" parent="1" source="KTHIXJi9sPrxiIzioin6-35" target="KTHIXJi9sPrxiIzioin6-40">
          <mxGeometry relative="1" as="geometry" />
        </mxCell>
        <mxCell id="KTHIXJi9sPrxiIzioin6-42" value="YES" style="edgeLabel;html=1;align=center;verticalAlign=middle;resizable=0;points=[];" vertex="1" connectable="0" parent="KTHIXJi9sPrxiIzioin6-41">
          <mxGeometry x="-0.3284" y="-1" relative="1" as="geometry">
            <mxPoint as="offset" />
          </mxGeometry>
        </mxCell>
        <mxCell id="KTHIXJi9sPrxiIzioin6-56" value="" style="edgeStyle=orthogonalEdgeStyle;rounded=0;orthogonalLoop=1;jettySize=auto;html=1;entryX=-0.034;entryY=0.349;entryDx=0;entryDy=0;entryPerimeter=0;" edge="1" parent="1" source="KTHIXJi9sPrxiIzioin6-35" target="KTHIXJi9sPrxiIzioin6-20">
          <mxGeometry relative="1" as="geometry">
            <mxPoint x="40" y="500" as="targetPoint" />
            <Array as="points">
              <mxPoint x="20" y="790" />
              <mxPoint x="20" y="501" />
            </Array>
          </mxGeometry>
        </mxCell>
        <mxCell id="KTHIXJi9sPrxiIzioin6-60" value="NO" style="edgeLabel;html=1;align=center;verticalAlign=middle;resizable=0;points=[];" vertex="1" connectable="0" parent="KTHIXJi9sPrxiIzioin6-56">
          <mxGeometry x="-0.784" relative="1" as="geometry">
            <mxPoint as="offset" />
          </mxGeometry>
        </mxCell>
        <mxCell id="KTHIXJi9sPrxiIzioin6-35" value="ARE ALL BLANKS FILLED?" style="shape=document;whiteSpace=wrap;html=1;boundedLbl=1;rounded=1;" vertex="1" parent="1">
          <mxGeometry x="150" y="750" width="120" height="80" as="geometry" />
        </mxCell>
        <mxCell id="KTHIXJi9sPrxiIzioin6-49" value="" style="edgeStyle=orthogonalEdgeStyle;rounded=0;orthogonalLoop=1;jettySize=auto;html=1;entryX=0.5;entryY=0;entryDx=0;entryDy=0;" edge="1" parent="1" source="KTHIXJi9sPrxiIzioin6-37" target="KTHIXJi9sPrxiIzioin6-40">
          <mxGeometry relative="1" as="geometry">
            <mxPoint x="480" y="790" as="targetPoint" />
          </mxGeometry>
        </mxCell>
        <mxCell id="KTHIXJi9sPrxiIzioin6-50" value="YES" style="edgeLabel;html=1;align=center;verticalAlign=middle;resizable=0;points=[];" vertex="1" connectable="0" parent="KTHIXJi9sPrxiIzioin6-49">
          <mxGeometry x="-0.6378" relative="1" as="geometry">
            <mxPoint as="offset" />
          </mxGeometry>
        </mxCell>
        <mxCell id="KTHIXJi9sPrxiIzioin6-58" value="" style="edgeStyle=orthogonalEdgeStyle;rounded=0;orthogonalLoop=1;jettySize=auto;html=1;entryX=1.046;entryY=0.349;entryDx=0;entryDy=0;entryPerimeter=0;" edge="1" parent="1" source="KTHIXJi9sPrxiIzioin6-37" target="KTHIXJi9sPrxiIzioin6-20">
          <mxGeometry relative="1" as="geometry">
            <mxPoint x="550" y="500" as="targetPoint" />
            <Array as="points">
              <mxPoint x="830" y="790" />
              <mxPoint x="830" y="500" />
              <mxPoint x="490" y="500" />
            </Array>
          </mxGeometry>
        </mxCell>
        <mxCell id="KTHIXJi9sPrxiIzioin6-59" value="NO" style="edgeLabel;html=1;align=center;verticalAlign=middle;resizable=0;points=[];" vertex="1" connectable="0" parent="KTHIXJi9sPrxiIzioin6-58">
          <mxGeometry x="-0.8689" y="-2" relative="1" as="geometry">
            <mxPoint as="offset" />
          </mxGeometry>
        </mxCell>
        <mxCell id="KTHIXJi9sPrxiIzioin6-37" value="HANGMAN FULLY DRAWN?" style="shape=document;whiteSpace=wrap;html=1;boundedLbl=1;rounded=1;" vertex="1" parent="1">
          <mxGeometry x="560" y="750" width="120" height="80" as="geometry" />
        </mxCell>
        <mxCell id="KTHIXJi9sPrxiIzioin6-40" value="GAME OVER" style="shape=process;whiteSpace=wrap;html=1;backgroundOutline=1;rounded=1;" vertex="1" parent="1">
          <mxGeometry x="370" y="920" width="120" height="60" as="geometry" />
        </mxCell>
      </root>
    </mxGraphModel>
  </diagram>
</mxfile>
